<svg id="Logo_final" data-name="Logo final" xmlns="http://www.w3.org/2000/svg" viewBox="0 0 171.47 134.23"><defs><style>.cls-1{fill:#0072bc;}.cls-1,.cls-2{stroke:#1d1d1b;stroke-miterlimit:10;}.cls-2{fill:#fff;}</style></defs><circle class="cls-1" cx="76.46" cy="67.11" r="66.61"/><path class="cls-2" d="M449.69,481c1.16-1.11,6.49-3.49,14-5.43,7.89-1.79,24.06-3.44,32.51-1.81,36.31,7,43.9,40,34.39,69s-41,51.07-86.93,27.66c-4.81-2.46-12.21-8.06-18.82-13.17s-12.43-9.73-14.09-10.24c-2.69-.82-7.18,3-12.52,6.72s-11.52,7.54-17.63,6.71a19.16,19.16,0,0,1-10.22-5,19.5,19.5,0,0,1-6-10.46c-1.49-7.48.42-16.66,5.52-24a30,30,0,0,1,24.61-13.2c2.64-.06,3.77.83,3.67,2.2s-1.4,3.21-3.67,5c-5.27,4.21-10.25,8.75-11.07,15.31-.92,7.26,6.34,8.64,13.12,5.39s15.27-7.6,19.26-7c1,.16,2.21,1.25,3.44,2.55s2.47,2.8,3.47,3.78c29.29,28.45,59.45,17.9,70.88-.29s5.13-44.06-40.51-46.22c-3.55-.17-4.89-1.56-5.1-3.15A5.71,5.71,0,0,1,449.69,481Z" transform="translate(-363.33 -458.55)"/><path class="cls-2" d="M437.84,509.46c-.06,11.88-18.13,11.88-18.18,0S437.78,497.58,437.84,509.46Z" transform="translate(-363.33 -458.55)"/><path class="cls-2" d="M450.66,519.14" transform="translate(-363.33 -458.55)"/></svg>